<svg height="726.71" viewBox="0 0 920.29 726.71" width="920.29" xmlns="http://www.w3.org/2000/svg"><path d="m911.5 584.5h-793v-575" fill="none" stroke="#000" stroke-width="4"/><path d="m334.5 518.5c188-21.949 110-425.005 216-427 106 1.995 28 405.051 216 427" fill="none" stroke="#43699f" stroke-width="4"/><text transform="translate(849.145 629.5)"><tspan fill="#656565" font-family="Avenir-Medium" font-size="30" x="-71.145" y="9">Frequency</tspan></text><text transform="translate(55.145 97.355)"><tspan fill="#656565" font-family="Avenir-Medium" font-size="30" x="-26.955" y="3.645">0dB</tspan></text><text transform="translate(55.145 177)"><tspan fill="#656565" font-family="Avenir-Medium" font-size="30" x="-31.695" y="3.645">-3dB</tspan></text><text transform="translate(550 626.645)"><tspan fill="#656565" font-family="Avenir-Medium" font-size="30" x="-11.667" y="6.145">f</tspan> <tspan fill="#656565" font-family="Avenir-Medium" font-size="24" x="-1.677" y="6.145">0</tspan></text><text transform="translate(550 702.855)"><tspan fill="#656565" font-family="Avenir-Medium" font-size="30" x="-26.559" y="6.145">f</tspan> <tspan fill="#656565" font-family="Avenir-Medium" font-size="24" x="-16.569" y="6.145">3dB</tspan></text><text transform="matrix(0 -1 1 0 62.145 308.855)"><tspan fill="#656565" font-family="Avenir-Medium" font-size="30" x="-65.58" y="9">Response</tspan></text><path d="m504.949 674.605h89.8" fill="none" stroke="#a3a3a3" stroke-width="4"/><path d="m504.949 674.605 3.2-4.8-12.8 4.8 12.8 4.8z" fill="#a3a3a3" stroke="#a3a3a3" stroke-width="4"/><path d="m594.749 674.605-3.2 4.8 12.8-4.8-12.8-4.8z" fill="#a3a3a3" stroke="#a3a3a3" stroke-width="4"/><g fill="none" stroke="#000" stroke-dasharray="12 10" stroke-width="2"><path d="m550.5 91.5h-449.151"/><path d="m606.349 169.5h-510"/><path d="m487.349 208.605v470.895"/><path d="m550.5 91.5v510.105"/><path d="m612.349 208.605v470.895"/></g></svg>